<?xml version="1.0" encoding="utf-8"?>
<!-- Generated by IcoMoon.io -->
<svg version="1.1" xmlns="http://www.w3.org/2000/svg" xmlns:xlink="http://www.w3.org/1999/xlink" width="752" height="32" viewBox="0 0 752 32">
<svg id="icon-arrow-back" viewBox="0 0 32 32">
  <path stroke-linejoin="miter" stroke-linecap="butt" stroke-miterlimit="4" stroke-width="2" d="M15.643 1c0.171 0 0.318 0.053 0.482 0.217 0.165 0.172 0.217 0.326 0.217 0.498-0 0.174-0.053 0.322-0.217 0.486l-12.723 12.723h26.82c0.243 0 0.393 0.071 0.522 0.197 0.124 0.123 0.193 0.266 0.193 0.506s-0.069 0.383-0.193 0.506c-0.128 0.127-0.279 0.197-0.522 0.197h-26.82l12.711 12.709c0.165 0.165 0.221 0.319 0.223 0.502v0.002c0.001 0.133-0.028 0.25-0.111 0.369l-0.104 0.123c-0.16 0.162-0.306 0.214-0.484 0.213-0.189-0.002-0.346-0.062-0.512-0.227l-13.896-13.896c-0.106-0.108-0.158-0.193-0.182-0.25v-0.002c-0.030-0.073-0.047-0.153-0.047-0.248s0.017-0.173 0.047-0.244v-0.002c0.024-0.057 0.075-0.142 0.182-0.25l13.9-13.9c0.181-0.174 0.34-0.229 0.514-0.229z"></path>
</svg>
  
<symbol id="icon-logo" viewBox="0 0 150 32">
        <path d="M42.444 27.974c0.992 0.514 1.827 0.349 2.506-0.496s0.762-1.725 0.248-2.643l-3.911-7.378-2.975 8.094 4.132 2.423zM30.766 25.661h3.883l5.317-13.324c0.22-0.514 0.303-1.019 0.248-1.514s-0.358-0.872-0.909-1.129l-4.572-1.982c-0.514-0.257-1.028-0.257-1.542 0s-0.79 0.642-0.826 1.156l-1.598 16.793zM14.447 25.661h3.814l-1.542-16.793c-0.037-0.551-0.285-0.954-0.744-1.211s-1.001-0.239-1.625 0.055l-4.352 1.872c-0.477 0.184-0.744 0.597-0.799 1.239s0.009 1.22 0.193 1.734l5.055 13.104zM6.638 27.974l4.132-2.423-2.975-8.094-3.911 7.653c-0.514 1.028-0.404 1.863 0.331 2.505s1.542 0.762 2.424 0.358zM21.567 25.661h5.894l1.818-20.041c0.073-0.514-0.064-0.945-0.413-1.294s-0.78-0.523-1.294-0.523h-6.060c-0.588 0-1.028 0.174-1.322 0.523s-0.422 0.78-0.386 1.294l1.763 20.041zM5.426 31.635c-1.52 0-2.804-0.542-3.853-1.627s-1.573-2.387-1.573-3.906c0-0.467 0.083-0.922 0.248-1.367s0.349-0.881 0.55-1.311l5.028-9.737c-0.551-1.493-0.586-2.97-0.106-4.432s1.412-2.494 2.796-3.099l4.572-1.872c0.588-0.22 1.184-0.351 1.79-0.392s1.17 0.099 1.693 0.421c0.259-1.201 0.846-2.187 1.763-2.959s1.975-1.157 3.177-1.157h6.060c1.202 0 2.261 0.358 3.177 1.075s1.504 1.657 1.763 2.821c0.551-0.211 1.122-0.297 1.714-0.255s1.163 0.19 1.714 0.447l4.627 1.872c1.412 0.54 2.369 1.53 2.872 2.968s0.451 2.85-0.155 4.232l5.002 10.012c0.156 0.421 0.328 0.838 0.516 1.25s0.282 0.832 0.282 1.262c0 1.621-0.579 2.985-1.738 4.093s-2.554 1.661-4.184 1.661c-0.422 0-0.82-0.085-1.195-0.254s-0.755-0.332-1.14-0.488l-3.307-1.625h-26.009l-3.129 1.625c-0.467 0.192-0.943 0.364-1.428 0.515s-0.994 0.227-1.526 0.227z"></path>
        <path d="M148.286 28.153c-0.22 0-0.404-0.073-0.55-0.22-0.147-0.157-0.22-0.351-0.22-0.582v-2.075h-2.216v-0.204c-0.555 0-1.048-0.11-1.478-0.33s-0.765-0.524-1.006-0.912c-0.241-0.388-0.362-0.838-0.362-1.352 0-0.555 0.131-1.053 0.393-1.493 0.273-0.44 0.639-0.786 1.101-1.038 0.471-0.262 1.011-0.393 1.619-0.393h2.72c0.241 0 0.435 0.073 0.582 0.22s0.22 0.341 0.22 0.582v7.011c-0.011 0.231-0.089 0.419-0.236 0.566-0.137 0.147-0.325 0.22-0.566 0.22zM142.706 27.965c-0.167-0.147-0.246-0.309-0.236-0.487s0.073-0.341 0.189-0.487l1.917-2.499h2.091l-2.688 3.348c-0.179 0.231-0.399 0.341-0.661 0.33s-0.466-0.079-0.613-0.204zM145.566 23.956h1.949v-2.908h-1.949c-0.419 0-0.786 0.136-1.101 0.409-0.314 0.262-0.471 0.603-0.471 1.022 0 0.44 0.157 0.796 0.471 1.069s0.681 0.409 1.101 0.409z"></path>
        <path d="M139.399 28.153c-0.231 0-0.424-0.073-0.582-0.22-0.147-0.157-0.22-0.351-0.22-0.582v-6.995c0-0.241 0.073-0.435 0.22-0.582 0.157-0.147 0.351-0.22 0.582-0.22 0.241 0 0.429 0.073 0.565 0.22s0.204 0.341 0.204 0.582v6.995c0 0.23-0.068 0.424-0.204 0.582-0.136 0.147-0.325 0.22-0.565 0.22zM132.938 28.153c-0.231 0-0.419-0.073-0.565-0.22-0.137-0.157-0.204-0.351-0.204-0.582v-6.995c0-0.241 0.068-0.435 0.204-0.582 0.147-0.147 0.335-0.22 0.565-0.22 0.242 0 0.435 0.073 0.582 0.22s0.22 0.341 0.22 0.582v6.995c0 0.23-0.073 0.424-0.22 0.582-0.147 0.147-0.34 0.22-0.582 0.22zM133.535 24.396v-1.415h5.518v1.415h-5.518z"></path>
        <path d="M122.073 31.832c-0.231 0-0.424-0.079-0.582-0.236-0.147-0.147-0.22-0.335-0.22-0.566v-7.168c0.010-0.828 0.204-1.572 0.582-2.232s0.891-1.179 1.54-1.556c0.65-0.388 1.383-0.582 2.201-0.582 0.828 0 1.567 0.194 2.216 0.582 0.65 0.377 1.163 0.896 1.541 1.556 0.388 0.66 0.582 1.404 0.582 2.232s-0.179 1.572-0.535 2.232c-0.346 0.65-0.823 1.169-1.43 1.556-0.608 0.377-1.294 0.566-2.059 0.566-0.618 0-1.189-0.126-1.713-0.377-0.513-0.262-0.954-0.613-1.32-1.053v4.244c0 0.231-0.073 0.419-0.22 0.566-0.147 0.157-0.341 0.236-0.582 0.236zM125.595 26.801c0.534 0 1.011-0.126 1.43-0.377 0.419-0.262 0.749-0.613 0.99-1.053 0.251-0.451 0.377-0.954 0.377-1.509 0-0.566-0.126-1.069-0.377-1.509-0.241-0.451-0.571-0.802-0.99-1.053-0.419-0.262-0.896-0.393-1.43-0.393-0.524 0-1.001 0.131-1.43 0.393-0.419 0.252-0.749 0.603-0.99 1.053-0.241 0.44-0.362 0.943-0.362 1.509 0 0.555 0.121 1.058 0.362 1.509 0.241 0.44 0.571 0.791 0.99 1.053 0.43 0.252 0.906 0.377 1.43 0.377z"></path>
<path d="M115.708 28.216c-0.87 0-1.645-0.183-2.326-0.55-0.671-0.377-1.2-0.891-1.588-1.541-0.377-0.66-0.566-1.415-0.566-2.264 0-0.859 0.178-1.614 0.534-2.264 0.367-0.66 0.87-1.174 1.509-1.54 0.639-0.377 1.373-0.566 2.201-0.566 0.817 0 1.519 0.183 2.106 0.55 0.587 0.356 1.032 0.854 1.336 1.493 0.314 0.629 0.472 1.357 0.472 2.185 0 0.199-0.069 0.367-0.204 0.503-0.136 0.126-0.309 0.189-0.519 0.189h-6.335v-1.258h6.287l-0.644 0.44c-0.010-0.524-0.115-0.99-0.314-1.399-0.199-0.419-0.482-0.749-0.849-0.99s-0.813-0.362-1.337-0.362c-0.597 0-1.111 0.131-1.54 0.393-0.419 0.262-0.739 0.623-0.959 1.085-0.22 0.451-0.33 0.964-0.33 1.541s0.131 1.090 0.392 1.54c0.262 0.451 0.624 0.807 1.085 1.069s0.99 0.393 1.588 0.393c0.325 0 0.655-0.058 0.99-0.173 0.346-0.126 0.624-0.267 0.833-0.424 0.157-0.115 0.325-0.173 0.503-0.173 0.189-0.010 0.351 0.042 0.487 0.157 0.178 0.157 0.272 0.33 0.282 0.519s-0.073 0.351-0.251 0.487c-0.356 0.283-0.802 0.514-1.336 0.692-0.524 0.178-1.027 0.267-1.509 0.267z"></path>
        <path d="M108.359 28.169c-0.231 0-0.424-0.073-0.582-0.22-0.147-0.157-0.22-0.351-0.22-0.582v-4.496c0-0.66-0.162-1.148-0.487-1.462-0.325-0.325-0.749-0.487-1.273-0.487-0.545 0-0.996 0.189-1.352 0.566-0.346 0.377-0.519 0.859-0.519 1.446h-1.305c0-0.681 0.147-1.279 0.441-1.792 0.293-0.524 0.702-0.933 1.226-1.226 0.534-0.293 1.142-0.44 1.823-0.44 0.597 0 1.126 0.131 1.588 0.393s0.817 0.65 1.069 1.163c0.262 0.503 0.393 1.116 0.393 1.839v4.496c0 0.231-0.073 0.424-0.22 0.582-0.147 0.147-0.341 0.22-0.582 0.22zM97.874 28.169c-0.231 0-0.424-0.073-0.582-0.22-0.147-0.157-0.22-0.351-0.22-0.582v-6.995c0-0.241 0.073-0.435 0.22-0.582 0.157-0.147 0.351-0.22 0.582-0.22 0.241 0 0.435 0.073 0.582 0.22s0.22 0.341 0.22 0.582v6.995c0 0.231-0.073 0.424-0.22 0.582-0.147 0.147-0.341 0.22-0.582 0.22zM103.124 28.169c-0.231 0-0.424-0.073-0.582-0.22-0.147-0.157-0.22-0.351-0.22-0.582v-4.496c0-0.66-0.162-1.148-0.487-1.462-0.325-0.325-0.749-0.487-1.273-0.487-0.545 0-0.996 0.189-1.352 0.566s-0.534 0.859-0.534 1.446h-0.99c0-0.681 0.136-1.279 0.409-1.792 0.272-0.524 0.65-0.933 1.132-1.226s1.032-0.44 1.65-0.44c0.597 0 1.127 0.131 1.588 0.393s0.817 0.65 1.069 1.163c0.262 0.503 0.393 1.116 0.393 1.839v4.496c0 0.231-0.073 0.424-0.22 0.582-0.147 0.147-0.341 0.22-0.582 0.22z"></path>
    <path d="M80.847 28.232c-0.723 0-1.373-0.152-1.949-0.456-0.566-0.314-1.017-0.77-1.352-1.368-0.325-0.597-0.487-1.331-0.487-2.201v-3.867c0-0.231 0.073-0.419 0.22-0.566 0.157-0.157 0.351-0.236 0.582-0.236s0.419 0.079 0.566 0.236c0.157 0.147 0.236 0.335 0.236 0.566v3.867c0 0.587 0.11 1.074 0.33 1.462 0.22 0.377 0.519 0.66 0.896 0.849 0.377 0.178 0.802 0.267 1.273 0.267 0.451 0 0.849-0.089 1.195-0.267 0.356-0.178 0.639-0.419 0.849-0.723s0.314-0.645 0.314-1.022h0.99c0 0.65-0.162 1.237-0.487 1.761-0.314 0.524-0.749 0.938-1.305 1.242-0.545 0.304-1.168 0.456-1.871 0.456zM84.32 28.153c-0.231 0-0.424-0.073-0.582-0.22-0.147-0.157-0.221-0.351-0.221-0.582v-7.011c0-0.241 0.073-0.435 0.221-0.582 0.157-0.147 0.351-0.22 0.582-0.22 0.241 0 0.435 0.073 0.582 0.22s0.22 0.341 0.22 0.582v7.011c0 0.231-0.073 0.424-0.22 0.582-0.147 0.147-0.341 0.22-0.582 0.22zM81.177 18.423c-0.534 0-1.016-0.089-1.446-0.267-0.43-0.189-0.77-0.44-1.022-0.755-0.251-0.325-0.377-0.686-0.377-1.085 0-0.22 0.068-0.403 0.204-0.55s0.304-0.22 0.503-0.22c0.21 0 0.377 0.073 0.503 0.22 0.136 0.147 0.204 0.33 0.204 0.55 0 0.262 0.136 0.487 0.409 0.676 0.272 0.178 0.613 0.267 1.022 0.267s0.749-0.089 1.022-0.267c0.272-0.189 0.409-0.414 0.409-0.676 0-0.22 0.068-0.403 0.204-0.55s0.303-0.22 0.503-0.22c0.21 0 0.377 0.073 0.503 0.22 0.136 0.147 0.204 0.33 0.204 0.55 0 0.398-0.126 0.76-0.377 1.085-0.251 0.314-0.592 0.566-1.022 0.755-0.419 0.178-0.901 0.267-1.446 0.267z"></path>
        <path d="M70.364 28.216c-0.765 0-1.451-0.189-2.059-0.566-0.608-0.388-1.090-0.906-1.446-1.556-0.346-0.66-0.519-1.404-0.519-2.232s0.189-1.572 0.566-2.232c0.388-0.66 0.906-1.179 1.556-1.556 0.66-0.388 1.399-0.582 2.216-0.582s1.551 0.194 2.201 0.582c0.65 0.377 1.163 0.896 1.54 1.556 0.388 0.66 0.582 1.404 0.582 2.232h-0.613c0 0.828-0.178 1.572-0.534 2.232-0.346 0.65-0.823 1.169-1.43 1.556-0.608 0.377-1.294 0.566-2.059 0.566zM70.678 26.801c0.534 0 1.011-0.126 1.43-0.377 0.419-0.262 0.749-0.613 0.99-1.053 0.241-0.451 0.362-0.954 0.362-1.509 0-0.566-0.121-1.069-0.362-1.509-0.241-0.451-0.571-0.802-0.99-1.053-0.419-0.262-0.896-0.393-1.43-0.393-0.524 0-1.001 0.131-1.43 0.393-0.419 0.252-0.754 0.603-1.006 1.053-0.241 0.44-0.362 0.943-0.362 1.509 0 0.555 0.121 1.058 0.362 1.509 0.251 0.44 0.587 0.791 1.006 1.053 0.43 0.252 0.906 0.377 1.43 0.377zM74.2 28.169c-0.231 0-0.424-0.073-0.582-0.22-0.147-0.157-0.22-0.351-0.22-0.582v-2.405l0.299-1.666 1.305 0.566v3.505c0 0.231-0.079 0.424-0.236 0.582-0.147 0.147-0.335 0.22-0.566 0.22z"></path>
        <path d="M55.106 28.153c-0.23 0-0.425-0.073-0.581-0.22-0.147-0.157-0.221-0.351-0.221-0.582v-6.995c0-0.241 0.074-0.435 0.221-0.582 0.157-0.147 0.351-0.22 0.581-0.22 0.335 0 0.618 0.162 0.849 0.487l3.254 4.7 3.254-4.7c0.23-0.325 0.514-0.487 0.849-0.487 0.241 0 0.434 0.073 0.581 0.22s0.22 0.341 0.22 0.582v6.995c0 0.23-0.073 0.424-0.22 0.582-0.147 0.147-0.34 0.22-0.581 0.22-0.23 0-0.425-0.073-0.582-0.22-0.147-0.157-0.22-0.351-0.22-0.582v-5.722l0.409 0.126-2.892 4.087c-0.262 0.367-0.545 0.55-0.849 0.55-0.303-0.011-0.581-0.194-0.833-0.55l-2.845-4.087 0.408-0.126v5.722c0 0.23-0.074 0.424-0.22 0.582-0.147 0.147-0.34 0.22-0.581 0.22z"></path>
 <path d="M91.687 28.216c-0.838 0-1.588-0.189-2.248-0.566-0.65-0.388-1.163-0.906-1.54-1.556-0.367-0.66-0.55-1.404-0.55-2.232 0-0.849 0.183-1.603 0.55-2.264s0.87-1.174 1.509-1.54c0.639-0.377 1.373-0.566 2.201-0.566 0.618 0 1.184 0.12 1.698 0.362 0.513 0.231 0.975 0.582 1.383 1.053 0.147 0.168 0.199 0.341 0.157 0.519s-0.157 0.335-0.346 0.472c-0.147 0.105-0.309 0.141-0.487 0.11-0.178-0.042-0.341-0.136-0.487-0.283-0.513-0.545-1.153-0.817-1.918-0.817-0.534 0-1.006 0.126-1.415 0.377-0.409 0.241-0.728 0.582-0.959 1.022s-0.346 0.959-0.346 1.556c0 0.566 0.115 1.069 0.346 1.509 0.241 0.44 0.571 0.791 0.99 1.053 0.419 0.252 0.906 0.377 1.462 0.377 0.367 0 0.686-0.042 0.959-0.126 0.283-0.094 0.54-0.236 0.77-0.424 0.168-0.136 0.341-0.21 0.519-0.22 0.178-0.021 0.335 0.026 0.472 0.141 0.178 0.147 0.278 0.314 0.299 0.503 0.021 0.178-0.041 0.341-0.189 0.487-0.754 0.702-1.698 1.053-2.829 1.053z"></path>
 path d="M117.996 12.497c-0.765 0-1.451-0.189-2.059-0.566-0.608-0.388-1.090-0.906-1.446-1.556-0.346-0.66-0.519-1.404-0.519-2.232s0.189-1.572 0.566-2.232c0.388-0.66 0.906-1.179 1.556-1.556 0.66-0.388 1.399-0.582 2.216-0.582s1.551 0.194 2.201 0.582c0.65 0.377 1.163 0.896 1.54 1.556 0.388 0.66 0.582 1.404 0.582 2.232h-0.613c0 0.828-0.178 1.572-0.534 2.232-0.346 0.65-0.823 1.168-1.43 1.556-0.608 0.377-1.294 0.566-2.059 0.566zM118.31 11.082c0.534 0 1.011-0.126 1.43-0.377 0.419-0.262 0.749-0.613 0.99-1.053 0.241-0.451 0.362-0.954 0.362-1.509 0-0.566-0.121-1.069-0.362-1.509-0.241-0.451-0.571-0.802-0.99-1.053-0.419-0.262-0.896-0.393-1.43-0.393-0.524 0-1.001 0.131-1.43 0.393-0.419 0.252-0.754 0.603-1.006 1.053-0.241 0.44-0.362 0.943-0.362 1.509 0 0.555 0.121 1.058 0.362 1.509 0.251 0.44 0.587 0.791 1.006 1.053 0.43 0.252 0.906 0.377 1.43 0.377zM121.832 12.45c-0.231 0-0.424-0.073-0.582-0.22-0.147-0.157-0.22-0.351-0.22-0.582v-2.405l0.299-1.666 1.305 0.566v3.505c0 0.231-0.079 0.424-0.236 0.582-0.147 0.147-0.335 0.22-0.566 0.22z"></path>
        <path d="M113.135 12.245c-0.136 0.126-0.33 0.189-0.582 0.189-0.241-0.010-0.43-0.084-0.566-0.22l-3.82-4.103 3.6-4.024c0.136-0.147 0.325-0.231 0.566-0.252 0.251-0.021 0.445 0.031 0.582 0.157 0.157 0.147 0.246 0.314 0.267 0.503 0.021 0.178-0.037 0.341-0.172 0.487l-2.846 3.050 3.018 3.238c0.136 0.136 0.204 0.299 0.204 0.487 0 0.178-0.084 0.341-0.251 0.487zM106.911 12.45c-0.231 0-0.414-0.073-0.55-0.22-0.136-0.157-0.204-0.351-0.204-0.582v-7.011c0-0.241 0.069-0.435 0.204-0.582s0.32-0.22 0.55-0.22c0.241 0 0.434 0.073 0.582 0.22 0.157 0.147 0.236 0.341 0.236 0.582v2.625h2.012v1.478h-2.012v2.908c0 0.231-0.079 0.424-0.236 0.582-0.147 0.147-0.341 0.22-0.582 0.22z"></path>
        <path d="M99.289 12.497c-0.786 0-1.483-0.183-2.091-0.55-0.597-0.377-1.069-0.891-1.415-1.54-0.346-0.66-0.519-1.415-0.519-2.264 0-0.859 0.183-1.614 0.55-2.264 0.377-0.66 0.891-1.174 1.54-1.54 0.65-0.377 1.399-0.566 2.248-0.566 0.838 0 1.582 0.189 2.233 0.566 0.65 0.367 1.158 0.88 1.525 1.54 0.377 0.65 0.566 1.404 0.566 2.264h-0.927c0 0.849-0.162 1.603-0.487 2.264-0.314 0.65-0.749 1.163-1.305 1.54-0.555 0.367-1.195 0.55-1.918 0.55zM99.572 16.002c-0.744 0-1.441-0.147-2.091-0.44s-1.2-0.723-1.65-1.289c-0.136-0.178-0.189-0.362-0.157-0.55 0.042-0.189 0.147-0.341 0.314-0.456 0.189-0.126 0.382-0.168 0.582-0.126 0.21 0.042 0.377 0.147 0.503 0.314 0.283 0.356 0.639 0.634 1.069 0.833s0.916 0.299 1.462 0.299c0.503 0 0.965-0.121 1.383-0.362 0.43-0.241 0.77-0.597 1.022-1.069s0.377-1.048 0.377-1.729v-2.232l0.519-1.383 1.022 0.33v3.395c0 0.828-0.183 1.577-0.55 2.248-0.367 0.681-0.88 1.221-1.54 1.619-0.65 0.398-1.404 0.597-2.264 0.597zM99.603 11.082c0.545 0 1.027-0.126 1.447-0.377s0.744-0.597 0.975-1.037c0.241-0.44 0.362-0.948 0.362-1.525s-0.121-1.085-0.362-1.525c-0.231-0.451-0.555-0.802-0.975-1.053s-0.901-0.377-1.447-0.377-1.027 0.126-1.446 0.377c-0.419 0.252-0.749 0.603-0.99 1.053-0.241 0.44-0.362 0.948-0.362 1.525s0.121 1.085 0.362 1.525c0.241 0.44 0.572 0.786 0.99 1.037s0.901 0.377 1.446 0.377z"></path>
   <path d="M89.155 12.497c-0.849 0-1.598-0.183-2.248-0.55-0.65-0.377-1.163-0.891-1.54-1.54-0.367-0.66-0.55-1.415-0.55-2.264 0-0.859 0.183-1.614 0.55-2.264 0.377-0.66 0.891-1.174 1.54-1.54 0.65-0.377 1.399-0.566 2.248-0.566 0.838 0 1.582 0.189 2.232 0.566 0.65 0.367 1.158 0.88 1.525 1.54 0.377 0.65 0.566 1.404 0.566 2.264 0 0.849-0.183 1.603-0.55 2.264-0.367 0.65-0.875 1.163-1.525 1.54-0.65 0.367-1.399 0.55-2.248 0.55zM89.155 11.082c0.545 0 1.027-0.126 1.446-0.377s0.744-0.597 0.975-1.037c0.241-0.44 0.362-0.948 0.362-1.525s-0.121-1.085-0.362-1.525c-0.231-0.451-0.555-0.802-0.975-1.053s-0.901-0.377-1.446-0.377-1.027 0.126-1.447 0.377c-0.419 0.252-0.749 0.603-0.99 1.053-0.241 0.44-0.362 0.948-0.362 1.525s0.121 1.085 0.362 1.525c0.241 0.44 0.571 0.786 0.99 1.037s0.901 0.377 1.447 0.377z"></path>
 <path d="M79.41 3.851c0.157 0 0.299 0.042 0.424 0.126s0.225 0.215 0.299 0.393l3.238 7.027c0.094 0.21 0.105 0.398 0.031 0.566-0.073 0.157-0.199 0.278-0.377 0.362-0.231 0.105-0.43 0.131-0.597 0.079s-0.309-0.183-0.424-0.393l-2.955-6.712h0.802l-3.049 6.712c-0.094 0.199-0.236 0.33-0.424 0.393-0.178 0.052-0.377 0.026-0.597-0.079-0.2-0.094-0.341-0.22-0.424-0.377-0.073-0.157-0.058-0.341 0.047-0.55l3.254-7.027c0.157-0.346 0.409-0.519 0.754-0.519z"></path>
        <path d="M69.635 12.497c-0.849 0-1.598-0.183-2.248-0.55-0.65-0.377-1.163-0.891-1.54-1.54-0.367-0.66-0.55-1.415-0.55-2.264 0-0.859 0.183-1.614 0.55-2.264 0.377-0.66 0.891-1.174 1.54-1.54 0.65-0.377 1.399-0.566 2.248-0.566 0.838 0 1.582 0.189 2.232 0.566 0.65 0.367 1.158 0.88 1.525 1.54 0.377 0.65 0.566 1.404 0.566 2.264 0 0.849-0.183 1.603-0.55 2.264-0.367 0.65-0.875 1.163-1.525 1.54-0.65 0.367-1.399 0.55-2.248 0.55zM69.635 11.082c0.545 0 1.027-0.126 1.446-0.377s0.744-0.597 0.975-1.037c0.241-0.44 0.362-0.948 0.362-1.525s-0.121-1.085-0.362-1.525c-0.231-0.451-0.555-0.802-0.975-1.053s-0.901-0.377-1.446-0.377c-0.545 0-1.027 0.126-1.447 0.377s-0.749 0.603-0.99 1.053c-0.241 0.44-0.362 0.948-0.362 1.525s0.121 1.085 0.362 1.525c0.241 0.44 0.571 0.786 0.99 1.037s0.901 0.377 1.447 0.377z"></path>
        <path d="M59.964 12.591c-0.849 0-1.645-0.157-2.389-0.472-0.734-0.325-1.379-0.77-1.934-1.336-0.545-0.576-0.975-1.247-1.289-2.012-0.304-0.765-0.456-1.593-0.456-2.484 0-0.88 0.152-1.698 0.456-2.452 0.314-0.765 0.744-1.43 1.289-1.996 0.555-0.576 1.2-1.027 1.934-1.352s1.53-0.487 2.389-0.487c0.807 0 1.498 0.105 2.075 0.314 0.587 0.21 1.173 0.555 1.761 1.037 0.084 0.063 0.147 0.131 0.188 0.204 0.052 0.063 0.084 0.131 0.094 0.204 0.021 0.063 0.031 0.141 0.031 0.236 0 0.199-0.073 0.367-0.22 0.503-0.136 0.126-0.304 0.199-0.503 0.22-0.199 0.010-0.393-0.058-0.581-0.204-0.388-0.335-0.791-0.592-1.211-0.77-0.409-0.178-0.953-0.267-1.635-0.267-0.618 0-1.2 0.126-1.745 0.377s-1.027 0.597-1.447 1.037c-0.408 0.44-0.728 0.954-0.959 1.541-0.23 0.576-0.346 1.195-0.346 1.855 0 0.671 0.115 1.299 0.346 1.886 0.231 0.576 0.55 1.085 0.959 1.525 0.419 0.44 0.901 0.786 1.447 1.037 0.544 0.241 1.127 0.362 1.745 0.362 0.535 0 1.038-0.089 1.509-0.267 0.482-0.189 0.944-0.445 1.383-0.77 0.188-0.136 0.372-0.194 0.55-0.173 0.188 0.010 0.346 0.084 0.471 0.22 0.126 0.126 0.189 0.304 0.189 0.534 0 0.105-0.021 0.21-0.063 0.314-0.042 0.094-0.105 0.183-0.188 0.267-0.566 0.451-1.174 0.791-1.824 1.022-0.639 0.231-1.316 0.346-2.028 0.346z"></path>
    </symbol>
  <svg id="icon-Icon" width="32" height="32" viewBox="0 0 32 32" x="240" y="0">
<path stroke-linejoin="miter" stroke-linecap="butt" stroke-miterlimit="4" stroke-width="1" stroke="#000" fill="#000" d="M23.116 12.177c0.045-0.045 0.108-0.073 0.177-0.073s0.132 0.028 0.177 0.073v0l0.353 0.353c0.045 0.045 0.073 0.108 0.073 0.177s-0.028 0.132-0.073 0.177v0l-7.646 7.646c-0.045 0.045-0.108 0.073-0.177 0.073s-0.132-0.028-0.177-0.073v0l-7.646-7.646c-0.045-0.045-0.073-0.108-0.073-0.177s0.028-0.132 0.073-0.177v0l0.353-0.353c0.045-0.045 0.108-0.073 0.177-0.073s0.132 0.028 0.177 0.073v0l7.116 7.116z"></path>
</svg>
<svg id="icon-Icon-up" width="32" height="32" viewBox="0 0 32 32" x="288" y="0">
<path stroke-linejoin="miter" stroke-linecap="butt" stroke-miterlimit="4" stroke-width="1" stroke="#000" fill="#000" d="M8.884 20.53c-0.045 0.045-0.108 0.073-0.177 0.073s-0.132-0.028-0.177-0.073v0l-0.353-0.353c-0.045-0.045-0.073-0.108-0.073-0.177s0.028-0.132 0.073-0.177v0l7.646-7.646c0.045-0.045 0.108-0.073 0.177-0.073s0.132 0.028 0.177 0.073v0l7.646 7.646c0.045 0.045 0.073 0.108 0.073 0.177s-0.028 0.132-0.073 0.177v0l-0.353 0.353c-0.045 0.045-0.108 0.073-0.177 0.073s-0.132-0.028-0.177-0.073v0l-7.116-7.116z"></path>
</svg>
<svg id="icon-menu" width="32" height="32" viewBox="0 0 32 32" x="336" y="0">
<path d="M4.936 24.295c-0.008 0-0.017 0-0.026 0-0.307 0-0.584-0.126-0.782-0.329l-0-0c-0.202-0.203-0.327-0.482-0.327-0.791 0-0.010 0-0.020 0-0.031l-0 0.002q0-0.483 0.327-0.807c0.2-0.2 0.476-0.323 0.781-0.323 0.009 0 0.019 0 0.028 0l-0.001-0h22.128q0.48 0 0.813 0.329c0.204 0.201 0.331 0.48 0.331 0.789 0 0.008-0 0.016-0 0.024l0-0.001q0 0.493-0.332 0.813c-0.202 0.2-0.481 0.324-0.788 0.324-0.009 0-0.018-0-0.026-0l0.001 0zM4.936 17.135c-0.008 0-0.017 0-0.027 0-0.306 0-0.582-0.126-0.781-0.328l-0-0c-0.202-0.201-0.327-0.478-0.327-0.785 0-0.010 0-0.020 0-0.029l-0 0.001q0-0.483 0.327-0.805c0.2-0.2 0.477-0.324 0.783-0.324 0.009 0 0.018 0 0.027 0l-0.001-0h22.128q0.48 0 0.813 0.329c0.204 0.201 0.331 0.48 0.331 0.789 0 0.008-0 0.017-0 0.025l0-0.001c0 0.003 0 0.006 0 0.010 0 0.619-0.501 1.12-1.12 1.12-0.008 0-0.017-0-0.025-0l0.001 0zM4.936 9.984c-0.008 0-0.017 0-0.026 0-0.307 0-0.584-0.126-0.782-0.329l-0-0c-0.202-0.203-0.327-0.482-0.327-0.791 0-0.010 0-0.020 0-0.031l-0 0.002q0-0.483 0.327-0.807c0.2-0.2 0.476-0.323 0.781-0.323 0.009 0 0.019 0 0.028 0l-0.001-0h22.128q0.48 0 0.813 0.329c0.204 0.201 0.331 0.48 0.331 0.789 0 0.008-0 0.016-0 0.024l0-0.001q0 0.492-0.332 0.813c-0.202 0.2-0.481 0.324-0.788 0.324-0.009 0-0.018-0-0.026-0l0.001 0z"></path>
</svg>
<svg id="icon-arrow-forward" viewBox="0 0 32 32">
  <path stroke-linejoin="miter" stroke-linecap="butt" stroke-miterlimit="4" stroke-width="2" d="M16.289 1c0.142 0.001 0.266 0.035 0.389 0.121l0.123 0.105 13.896 13.896c0.106 0.108 0.158 0.193 0.182 0.25v0.002c0.030 0.073 0.047 0.153 0.047 0.248s-0.017 0.173-0.047 0.244v0.002c-0.024 0.057-0.075 0.142-0.182 0.25l-13.908 13.896c-0.183 0.181-0.34 0.232-0.506 0.232-0.161-0-0.306-0.049-0.473-0.221l-0.010-0.010-0.104-0.121c-0.084-0.119-0.113-0.235-0.113-0.365s0.030-0.245 0.113-0.363l0.104-0.121 12.723-12.723h-26.82c-0.244-0-0.389-0.070-0.51-0.191h-0.002c-0.122-0.122-0.191-0.268-0.191-0.512s0.070-0.39 0.191-0.512h0.002c0.121-0.121 0.266-0.191 0.51-0.191h26.82l-12.711-12.711c-0.123-0.123-0.186-0.24-0.211-0.369l-0.012-0.135c-0.002-0.18 0.050-0.327 0.211-0.488l0.002-0.002c0.16-0.161 0.307-0.214 0.486-0.213z"></path>
</svg>

<svg id="icon-arrow_outward" width="32" height="32" viewBox="0 0 32 32" x="432" y="0">
<path d="M21.72 10.4l-12.795 12.804c-0.202 0.209-0.484 0.339-0.797 0.339-0.001 0-0.002 0-0.003 0h0c-0.001 0-0.002 0-0.004 0-0.311 0-0.591-0.133-0.786-0.346l-0.001-0.001c-0.213-0.201-0.345-0.485-0.347-0.8v-0q0-0.452 0.347-0.8l12.795-12.793h-11.267c-0.008 0-0.017 0-0.027 0-0.308 0-0.587-0.126-0.788-0.33l-0-0c-0.203-0.201-0.328-0.479-0.328-0.787 0-0.009 0-0.019 0-0.028l-0 0.001q0-0.483 0.328-0.805c0.202-0.2 0.481-0.324 0.788-0.324 0.010 0 0.020 0 0.029 0l-0.001-0h14q0.48 0 0.808 0.328c0.202 0.199 0.327 0.475 0.327 0.78 0 0.010-0 0.020-0 0.030l0-0.001v14q0 0.48-0.328 0.808c-0.201 0.203-0.479 0.328-0.787 0.328-0.009 0-0.019-0-0.028-0l0.001 0c-0.010 0-0.021 0-0.032 0-0.306 0-0.583-0.126-0.781-0.328l-0-0c-0.2-0.2-0.324-0.477-0.324-0.783 0-0.009 0-0.018 0-0.027l-0 0.001z"></path>
</svg>
<symbol id="icon-close" viewBox="0 0 32 32">
<path stroke-linejoin="miter" stroke-linecap="butt" stroke-miterlimit="4" stroke-width="1.3333" d="M23.466 7.9c0.219 0 0.355 0.065 0.462 0.172s0.172 0.242 0.172 0.461c0 0.219-0.065 0.355-0.172 0.462l-7.005 7.005 7.005 7.004c0.107 0.107 0.172 0.243 0.172 0.462s-0.065 0.355-0.172 0.462c-0.107 0.107-0.243 0.172-0.462 0.172s-0.355-0.065-0.462-0.172l-7.004-7.005-7.005 7.005c-0.107 0.107-0.243 0.172-0.462 0.172s-0.354-0.065-0.461-0.172c-0.107-0.107-0.172-0.243-0.172-0.462s0.065-0.355 0.172-0.462l7.004-7.004-7.004-7.005c-0.107-0.107-0.172-0.243-0.172-0.462s0.065-0.354 0.172-0.461 0.242-0.172 0.461-0.172c0.219 0 0.355 0.065 0.462 0.172l7.005 7.004 7.004-7.004c0.107-0.107 0.243-0.172 0.462-0.172z"></path>
</symbol>
<svg id="icon-fb" viewBox="0 0 32 32">
        <path d="M32 16.098c0-8.891-7.163-16.098-16-16.098s-16 7.207-16 16.098c0 8.035 5.851 14.695 13.5 15.902v-11.249h-4.063v-4.653h4.063v-3.547c0-4.035 2.389-6.263 6.043-6.263 1.751 0 3.582 0.314 3.582 0.314v3.962h-2.017c-1.988 0-2.608 1.241-2.608 2.514v3.020h4.437l-0.709 4.653h-3.728v11.249c7.649-1.208 13.5-7.867 13.5-15.902z"></path>
    </svg>
<symbol id="icon-instagram" viewBox="0 0 30 30">
        <path d="M15.998 6.161c3.206 0 3.585 0.014 4.846 0.071 1.172 0.052 1.804 0.248 2.226 0.412 0.558 0.216 0.961 0.478 1.378 0.895 0.422 0.422 0.679 0.82 0.9 1.378 0.164 0.422 0.361 1.059 0.412 2.226 0.056 1.266 0.071 1.645 0.071 4.847s-0.014 3.585-0.071 4.847c-0.052 1.172-0.248 1.804-0.412 2.227-0.216 0.558-0.478 0.961-0.895 1.377-0.422 0.422-0.82 0.679-1.378 0.9-0.422 0.164-1.060 0.361-2.226 0.412-1.266 0.056-1.645 0.071-4.847 0.071s-3.585-0.014-4.847-0.071c-1.172-0.052-1.804-0.248-2.226-0.412-0.558-0.216-0.961-0.478-1.378-0.895-0.422-0.422-0.679-0.82-0.9-1.378-0.164-0.422-0.361-1.060-0.412-2.226-0.056-1.266-0.071-1.645-0.071-4.847s0.014-3.585 0.071-4.847c0.052-1.172 0.248-1.804 0.412-2.226 0.216-0.558 0.478-0.961 0.895-1.378 0.422-0.422 0.82-0.679 1.378-0.9 0.422-0.164 1.059-0.361 2.226-0.412 1.261-0.056 1.641-0.071 4.847-0.071h0.001zM15.998 4.001c-3.258 0-3.665 0.014-4.945 0.071-1.275 0.056-2.151 0.262-2.91 0.558-0.792 0.309-1.462 0.717-2.127 1.387-0.67 0.666-1.078 1.336-1.387 2.123-0.295 0.764-0.502 1.636-0.558 2.91-0.056 1.285-0.071 1.692-0.071 4.949s0.014 3.665 0.071 4.945c0.056 1.275 0.262 2.151 0.558 2.91 0.31 0.792 0.717 1.462 1.387 2.127 0.665 0.665 1.336 1.078 2.123 1.383 0.764 0.295 1.636 0.502 2.91 0.558 1.279 0.056 1.687 0.071 4.945 0.071s3.666-0.014 4.945-0.071c1.275-0.056 2.151-0.262 2.91-0.558 0.787-0.305 1.458-0.717 2.123-1.383s1.078-1.336 1.383-2.123c0.295-0.764 0.502-1.635 0.558-2.91 0.056-1.279 0.071-1.687 0.071-4.945s-0.014-3.665-0.071-4.945c-0.056-1.275-0.262-2.151-0.558-2.91-0.295-0.797-0.703-1.467-1.373-2.133-0.665-0.665-1.336-1.078-2.123-1.383-0.764-0.295-1.635-0.502-2.91-0.558-1.284-0.061-1.692-0.075-4.949-0.075l-0.001 0.001z"></path>
        <path d="M15.998 9.836c-3.402 0-6.163 2.76-6.163 6.163s2.76 6.163 6.163 6.163c3.403 0 6.163-2.76 6.163-6.163s-2.76-6.163-6.163-6.163zM15.998 19.997c-2.208 0-3.998-1.79-3.998-3.998s1.79-3.998 3.998-3.998c2.208 0 3.998 1.79 3.998 3.998s-1.79 3.998-3.998 3.998z"></path>
        <path d="M23.843 9.592c0 0.795-0.644 1.439-1.439 1.439s-1.439-0.644-1.439-1.439 0.644-1.439 1.439-1.439c0.795 0 1.439 0.644 1.439 1.439z"></path>
    </symbol>
<svg id="icon-youtube" viewBox="0 0 45 32">
        <path d="M41.828 4.7c-0.243-0.902-0.718-1.724-1.377-2.385s-1.481-1.138-2.382-1.383c-3.341-0.917-16.706-0.932-16.706-0.932s-13.363-0.015-16.706 0.862c-0.9 0.256-1.72 0.74-2.38 1.404s-1.138 1.487-1.388 2.389c-0.881 3.341-0.89 10.27-0.89 10.27s-0.009 6.963 0.866 10.27c0.491 1.828 1.931 3.273 3.761 3.765 3.375 0.917 16.704 0.932 16.704 0.932s13.365 0.015 16.706-0.86c0.901-0.245 1.723-0.72 2.384-1.38s1.139-1.481 1.385-2.381c0.883-3.339 0.89-10.266 0.89-10.266s0.043-6.965-0.868-10.306zM17.088 21.344l0.011-12.8 11.108 6.411-11.119 6.389z"></path>
    </svg>
</svg>
